<svg width="27" height="18" viewBox="0 0 27 18" fill="none" xmlns="http://www.w3.org/2000/svg">
<path fill-rule="evenodd" clip-rule="evenodd" d="M9.08578 0H9.5H25.5H26.5V1V17V18H25.5H9.5H9.08578L8.79289 17.7071L0.792892 9.70711L0.0857849 9L0.792892 8.29289L8.79289 0.292893L9.08578 0ZM9.91421 2L2.91421 9L9.91421 16H24.5V2H9.91421ZM13.5 4.58578L14.2071 5.29288L16.5 7.58578L18.7929 5.29289L19.5 4.58579L20.9142 6L20.2071 6.70711L17.9142 9L20.2071 11.2929L20.9142 12L19.5 13.4142L18.7929 12.7071L16.5 10.4142L14.2071 12.7071L13.5 13.4142L12.0858 12L12.7929 11.2929L15.0858 9L12.7929 6.7071L12.0858 5.99999L13.5 4.58578Z" fill="white"/>
</svg>
